<?xml version="1.0" standalone="no"?><!DOCTYPE svg PUBLIC "-//W3C//DTD SVG 1.1//EN" "http://www.w3.org/Graphics/SVG/1.1/DTD/svg11.dtd"><svg t="1627802690140" class="icon" viewBox="0 0 1024 1024" version="1.1" xmlns="http://www.w3.org/2000/svg" p-id="1509" xmlns:xlink="http://www.w3.org/1999/xlink" width="200" height="200"><defs><style type="text/css"></style></defs><path d="M42.667 0l295.68 407.893H698.24L402.517 0z" fill="#FF8787" p-id="1510"></path><path d="M240.341 0l280.32 394.667h-39.338L173.739 0h66.602z" fill="#FFFFFF" fill-opacity=".503" p-id="1511"></path><path d="M632.533 0l-295.68 407.893h359.808L992.427 0z" fill="#FA5252" p-id="1512"></path><path d="M858.965 0L551.381 394.667H512L792.32 0h66.645z" fill="#FFFFFF" fill-opacity=".503" p-id="1513"></path><path d="M896 640a384 384 0 1 1-768 0 384 384 0 0 1 768 0" fill="#FFCB61" p-id="1514"></path><path d="M810.667 640a298.667 298.667 0 1 1-597.334 0 298.667 298.667 0 0 1 597.334 0" fill="#FFEB79" p-id="1515"></path><path d="M588.8 448v378.667H484.181V578.56c-16.938 12.843-33.322 23.253-49.152 31.232a383.872 383.872 0 0 1-59.562 22.827V547.84c35.2-11.35 62.549-24.96 82.048-40.875a166.827 166.827 0 0 0 45.696-58.922H588.8z" fill="#FFB620" p-id="1516"></path></svg>