<?xml version="1.0" standalone="no"?><!DOCTYPE svg PUBLIC "-//W3C//DTD SVG 1.1//EN" "http://www.w3.org/Graphics/SVG/1.1/DTD/svg11.dtd"><svg t="1627802677699" class="icon" viewBox="0 0 1024 1024" version="1.1" xmlns="http://www.w3.org/2000/svg" p-id="1213" xmlns:xlink="http://www.w3.org/1999/xlink" width="200" height="200"><defs><style type="text/css"></style></defs><path d="M42.666667 0L338.346667 407.893333h359.893333L402.517333 0z" fill="#A3D1FF" p-id="1214"></path><path d="M240.341333 0l280.32 394.666667h-39.338666L173.738667 0h66.602666z" fill="#FFFFFF" fill-opacity=".503" p-id="1215"></path><path d="M632.533333 0L336.853333 407.893333h359.808L992.426667 0z" fill="#198CFF" p-id="1216"></path><path d="M858.965333 0l-307.584 394.666667H512L792.32 0h66.645333z" fill="#FFFFFF" fill-opacity=".503" p-id="1217"></path><path d="M896 640a384 384 0 1 1-768 0 384 384 0 0 1 768 0" fill="#B0C7D8" p-id="1218"></path><path d="M810.666667 640a298.666667 298.666667 0 1 1-597.333334 0 298.666667 298.666667 0 0 1 597.333334 0" fill="#D9E1EB" p-id="1219"></path><path d="M640 810.666667H384a185.429333 185.429333 0 0 1 26.709333-77.952c14.890667-24.32 42.752-53.077333 83.712-86.186667 24.96-20.309333 40.96-35.712 47.957334-46.250667 6.997333-10.538667 10.453333-20.522667 10.453333-29.994666a36.608 36.608 0 0 0-10.368-26.197334 34.56 34.56 0 0 0-26.026667-10.88 34.730667 34.730667 0 0 0-26.752 11.221334c-6.912 7.466667-11.52 20.693333-13.909333 39.594666l-85.504-7.552c3.370667-26.24 9.514667-46.72 18.432-61.44 8.96-14.762667 21.546667-26.026667 37.845333-33.92 16.256-7.850667 38.784-11.776 67.541334-11.776 30.037333 0 53.376 3.754667 70.058666 11.221334 16.725333 7.466667 29.866667 18.944 39.424 34.432 9.557333 15.488 14.336 32.853333 14.336 52.096 0 20.48-5.504 39.978667-16.469333 58.624-10.922667 18.602667-30.890667 39.04-59.776 61.354666-17.194667 12.970667-28.672 22.016-34.474667 27.221334s-12.586667 11.946667-20.437333 20.394666H640V810.666667z" fill="#94B1C7" p-id="1220"></path></svg>