<?xml version="1.0" standalone="no"?><!DOCTYPE svg PUBLIC "-//W3C//DTD SVG 1.1//EN" "http://www.w3.org/Graphics/SVG/1.1/DTD/svg11.dtd"><svg t="1627802686211" class="icon" viewBox="0 0 1024 1024" version="1.1" xmlns="http://www.w3.org/2000/svg" p-id="1361" xmlns:xlink="http://www.w3.org/1999/xlink" width="200" height="200"><defs><style type="text/css"></style></defs><path d="M42.666667 0L338.346667 407.893333h359.893333L402.517333 0z" fill="#345f11" p-id="1362"></path><path d="M240.341333 0l280.32 394.666667h-39.338666L173.738667 0h66.602666z" fill="#FFFFFF" fill-opacity=".503" p-id="1363"></path><path d="M632.533333 0L336.853333 407.893333h359.808L992.426667 0z" fill="#345f11" p-id="1364"></path><path d="M858.965333 0l-307.584 394.666667H512L792.32 0h66.645333z" fill="#FFFFFF" fill-opacity=".503" p-id="1365"></path><path d="M896 640a384 384 0 1 1-768 0 384 384 0 0 1 768 0" fill="#F6BD73" p-id="1366"></path><path d="M810.666667 640a298.666667 298.666667 0 1 1-597.333334 0 298.666667 298.666667 0 0 1 597.333334 0" fill="#FFDCA9" p-id="1367"></path><path d="M474.026667 575.018667l-85.162667-16.213334c7.082667-28.885333 20.693333-51.029333 40.832-66.389333 20.096-15.36 48.64-23.082667 85.461333-23.082667 42.325333 0 72.96 8.405333 91.818667 25.173334 18.858667 16.810667 28.288 37.888 28.288 63.317333 0 14.933333-3.84 28.416-11.52 40.533333-7.637333 12.032-19.2 22.613333-34.688 31.744 12.544 3.285333 22.101333 7.125333 28.757333 11.52 10.752 7.082667 19.114667 16.384 25.088 27.904 5.973333 11.52 8.96 25.301333 8.96 41.301334 0 20.053333-4.906667 39.338667-14.805333 57.770666a102.144 102.144 0 0 1-42.666667 42.624c-18.602667 9.984-43.008 14.933333-73.258666 14.933334-29.44 0-52.736-3.669333-69.76-11.050667a104.789333 104.789333 0 0 1-42.026667-32.384c-11.008-14.165333-19.456-32-25.344-53.546667l90.026667-12.672c3.541333 19.285333 9.045333 32.64 16.469333 40.106667a38.485333 38.485333 0 0 0 28.416 11.178667c12.117333 0 22.186667-4.693333 30.208-14.08 8.064-9.472 12.074667-22.016 12.074667-37.717334 0-16-3.882667-28.373333-11.605334-37.162666-7.765333-8.789333-18.261333-13.226667-31.573333-13.226667-7.04 0-16.768 1.92-29.184 5.674667l4.693333-68.48a81.066667 81.066667 0 0 0 11.690667 1.194666 39.765333 39.765333 0 0 0 29.525333-12.032 39.210667 39.210667 0 0 0 11.861334-28.458666c0-10.538667-2.986667-18.944-8.874667-25.173334-5.888-6.314667-13.994667-9.429333-24.32-9.429333a34.474667 34.474667 0 0 0-25.898667 10.24c-6.613333 6.826667-11.093333 18.773333-13.482666 35.882667z" fill="#E9AC5C" p-id="1368"></path></svg>